{
	"asset":{
		"generator":"Khronos glTF Blender I/O v4.5.48",
		"version":"2.0"
	},
	"scene":0,
	"scenes":[
		{
			"name":"Scene",
			"nodes":[
				21
			]
		}
	],
	"nodes":[
		{
			"mesh":0,
			"name":"backLegL.001",
			"translation":[
				0.06875000149011612,
				-0.375,
				-0.4375
			]
		},
		{
			"children":[
				0
			],
			"name":"backLegL",
			"translation":[
				-0.06875000149011612,
				-0.0625,
				0.375
			]
		},
		{
			"mesh":1,
			"name":"backLegR.001",
			"translation":[
				-0.06875000149011612,
				-0.375,
				-0.4375
			]
		},
		{
			"children":[
				2
			],
			"name":"backLegR",
			"translation":[
				0.06875000149011612,
				-0.0625,
				0.375
			]
		},
		{
			"mesh":2,
			"name":"body.001",
			"rotation":[
				-0.70710688829422,
				0,
				0,
				0.7071066498756409
			]
		},
		{
			"mesh":3,
			"name":"frontLegL.001",
			"translation":[
				0.07500000298023224,
				-0.625,
				0.25
			]
		},
		{
			"children":[
				5
			],
			"name":"frontLegL",
			"translation":[
				-0.07500000298023224,
				0.1875,
				-0.3125
			]
		},
		{
			"mesh":4,
			"name":"frontLegR.001",
			"translation":[
				-0.07500000298023224,
				-0.625,
				0.25
			]
		},
		{
			"children":[
				7
			],
			"name":"frontLegR",
			"translation":[
				0.07500000298023224,
				0.1875,
				-0.3125
			]
		},
		{
			"mesh":5,
			"name":"head.001",
			"translation":[
				0,
				-0.5625,
				0.5625
			]
		},
		{
			"mesh":6,
			"name":"head.002",
			"translation":[
				0,
				-0.5625,
				0.5625
			]
		},
		{
			"mesh":7,
			"name":"head.003",
			"translation":[
				0,
				-0.5625,
				0.5625
			]
		},
		{
			"mesh":8,
			"name":"head.004",
			"translation":[
				0,
				-0.5625,
				0.5625
			]
		},
		{
			"name":"lead.001",
			"scale":[
				0.02950819581747055,
				0.02950819581747055,
				0.02950819581747055
			]
		},
		{
			"children":[
				13
			],
			"name":"lead"
		},
		{
			"children":[
				9,
				10,
				11,
				12,
				14
			],
			"name":"head",
			"translation":[
				0,
				0.125,
				-0.625
			]
		},
		{
			"mesh":9,
			"name":"tail1.001",
			"rotation":[
				-0.40274664759635925,
				0,
				0,
				0.9153115153312683
			]
		},
		{
			"mesh":10,
			"name":"tail2.001",
			"translation":[
				9.999999747378752e-06,
				-0.22499993443489075,
				-0.8687499165534973
			]
		},
		{
			"children":[
				17
			],
			"name":"tail2",
			"rotation":[
				-0.6883546113967896,
				0,
				0,
				0.7253744006156921
			],
			"translation":[
				0,
				-0.3375000059604645,
				0.3687499761581421
			]
		},
		{
			"children":[
				16,
				18
			],
			"name":"tail1",
			"translation":[
				0,
				0.125,
				0.4375
			]
		},
		{
			"children":[
				1,
				3,
				4,
				6,
				8,
				15,
				19
			],
			"name":"body",
			"translation":[
				0,
				0.4375,
				0.0625
			]
		},
		{
			"children":[
				20
			],
			"name":"Node_21"
		}
	],
	"animations":[
		{
			"channels":[
				{
					"sampler":0,
					"target":{
						"node":1,
						"path":"rotation"
					}
				},
				{
					"sampler":1,
					"target":{
						"node":3,
						"path":"rotation"
					}
				},
				{
					"sampler":2,
					"target":{
						"node":6,
						"path":"rotation"
					}
				},
				{
					"sampler":3,
					"target":{
						"node":8,
						"path":"rotation"
					}
				},
				{
					"sampler":4,
					"target":{
						"node":19,
						"path":"rotation"
					}
				},
				{
					"sampler":5,
					"target":{
						"node":18,
						"path":"rotation"
					}
				}
			],
			"name":"animation.bhhjhhhhj.sprint",
			"samplers":[
				{
					"input":34,
					"interpolation":"LINEAR",
					"output":35
				},
				{
					"input":34,
					"interpolation":"LINEAR",
					"output":35
				},
				{
					"input":34,
					"interpolation":"LINEAR",
					"output":35
				},
				{
					"input":34,
					"interpolation":"LINEAR",
					"output":35
				},
				{
					"input":34,
					"interpolation":"LINEAR",
					"output":35
				},
				{
					"input":34,
					"interpolation":"LINEAR",
					"output":36
				}
			]
		},
		{
			"channels":[
				{
					"sampler":0,
					"target":{
						"node":1,
						"path":"rotation"
					}
				},
				{
					"sampler":1,
					"target":{
						"node":3,
						"path":"rotation"
					}
				},
				{
					"sampler":2,
					"target":{
						"node":6,
						"path":"rotation"
					}
				},
				{
					"sampler":3,
					"target":{
						"node":8,
						"path":"rotation"
					}
				},
				{
					"sampler":4,
					"target":{
						"node":19,
						"path":"rotation"
					}
				},
				{
					"sampler":5,
					"target":{
						"node":18,
						"path":"rotation"
					}
				}
			],
			"name":"animation.bhhjhhhhj.walk",
			"samplers":[
				{
					"input":34,
					"interpolation":"LINEAR",
					"output":35
				},
				{
					"input":34,
					"interpolation":"LINEAR",
					"output":35
				},
				{
					"input":34,
					"interpolation":"LINEAR",
					"output":35
				},
				{
					"input":34,
					"interpolation":"LINEAR",
					"output":35
				},
				{
					"input":34,
					"interpolation":"LINEAR",
					"output":37
				},
				{
					"input":34,
					"interpolation":"LINEAR",
					"output":38
				}
			]
		}
	],
	"materials":[
		{
			"alphaCutoff":0.05000000074505806,
			"alphaMode":"MASK",
			"doubleSided":true,
			"name":"Material_0",
			"pbrMetallicRoughness":{
				"baseColorTexture":{
					"index":0
				},
				"metallicFactor":0
			}
		}
	],
	"meshes":[
		{
			"name":"Mesh_7",
			"primitives":[
				{
					"attributes":{
						"POSITION":0,
						"NORMAL":1,
						"TEXCOORD_0":2
					},
					"indices":3,
					"material":0
				}
			]
		},
		{
			"name":"Mesh_8",
			"primitives":[
				{
					"attributes":{
						"POSITION":4,
						"NORMAL":5,
						"TEXCOORD_0":6
					},
					"indices":3,
					"material":0
				}
			]
		},
		{
			"name":"Mesh_0",
			"primitives":[
				{
					"attributes":{
						"POSITION":7,
						"NORMAL":8,
						"TEXCOORD_0":9
					},
					"indices":3,
					"material":0
				}
			]
		},
		{
			"name":"Mesh_9",
			"primitives":[
				{
					"attributes":{
						"POSITION":10,
						"NORMAL":11,
						"TEXCOORD_0":12
					},
					"indices":3,
					"material":0
				}
			]
		},
		{
			"name":"Mesh_10",
			"primitives":[
				{
					"attributes":{
						"POSITION":13,
						"NORMAL":14,
						"TEXCOORD_0":15
					},
					"indices":3,
					"material":0
				}
			]
		},
		{
			"name":"Mesh_1",
			"primitives":[
				{
					"attributes":{
						"POSITION":16,
						"NORMAL":17,
						"TEXCOORD_0":18
					},
					"indices":3,
					"material":0
				}
			]
		},
		{
			"name":"Mesh_2",
			"primitives":[
				{
					"attributes":{
						"POSITION":19,
						"NORMAL":20,
						"TEXCOORD_0":21
					},
					"indices":3,
					"material":0
				}
			]
		},
		{
			"name":"Mesh_3",
			"primitives":[
				{
					"attributes":{
						"POSITION":22,
						"NORMAL":23,
						"TEXCOORD_0":24
					},
					"indices":3,
					"material":0
				}
			]
		},
		{
			"name":"Mesh_4",
			"primitives":[
				{
					"attributes":{
						"POSITION":25,
						"NORMAL":26,
						"TEXCOORD_0":27
					},
					"indices":3,
					"material":0
				}
			]
		},
		{
			"name":"Mesh_5",
			"primitives":[
				{
					"attributes":{
						"POSITION":28,
						"NORMAL":29,
						"TEXCOORD_0":30
					},
					"indices":3,
					"material":0
				}
			]
		},
		{
			"name":"Mesh_6",
			"primitives":[
				{
					"attributes":{
						"POSITION":31,
						"NORMAL":32,
						"TEXCOORD_0":33
					},
					"indices":3,
					"material":0
				}
			]
		}
	],
	"textures":[
		{
			"sampler":0,
			"source":0
		}
	],
	"images":[
		{
			"mimeType":"image/png",
			"name":"Image_0",
			"uri":"../textures/Image_0.png"
		}
	],
	"accessors":[
		{
			"bufferView":0,
			"componentType":5126,
			"count":24,
			"max":[
				-0.0062500000931322575,
				0.375,
				0.5
			],
			"min":[
				-0.13124999403953552,
				0,
				0.375
			],
			"type":"VEC3"
		},
		{
			"bufferView":1,
			"componentType":5126,
			"count":24,
			"type":"VEC3"
		},
		{
			"bufferView":2,
			"componentType":5126,
			"count":24,
			"type":"VEC2"
		},
		{
			"bufferView":3,
			"componentType":5123,
			"count":36,
			"type":"SCALAR"
		},
		{
			"bufferView":4,
			"componentType":5126,
			"count":24,
			"max":[
				0.13124999403953552,
				0.375,
				0.5
			],
			"min":[
				0.0062500000931322575,
				0,
				0.375
			],
			"type":"VEC3"
		},
		{
			"bufferView":5,
			"componentType":5126,
			"count":24,
			"type":"VEC3"
		},
		{
			"bufferView":6,
			"componentType":5126,
			"count":24,
			"type":"VEC2"
		},
		{
			"bufferView":7,
			"componentType":5126,
			"count":24,
			"max":[
				0.125,
				0.5,
				0.1875
			],
			"min":[
				-0.125,
				-0.5,
				-0.1875
			],
			"type":"VEC3"
		},
		{
			"bufferView":8,
			"componentType":5126,
			"count":24,
			"type":"VEC3"
		},
		{
			"bufferView":9,
			"componentType":5126,
			"count":24,
			"type":"VEC2"
		},
		{
			"bufferView":10,
			"componentType":5126,
			"count":24,
			"max":[
				-0.012500000186264515,
				0.637499988079071,
				-0.1875
			],
			"min":[
				-0.13750000298023224,
				0.012500000186264515,
				-0.3125
			],
			"type":"VEC3"
		},
		{
			"bufferView":11,
			"componentType":5126,
			"count":24,
			"type":"VEC3"
		},
		{
			"bufferView":12,
			"componentType":5126,
			"count":24,
			"type":"VEC2"
		},
		{
			"bufferView":13,
			"componentType":5126,
			"count":24,
			"max":[
				0.13750000298023224,
				0.637499988079071,
				-0.1875
			],
			"min":[
				0.012500000186264515,
				0.012500000186264515,
				-0.3125
			],
			"type":"VEC3"
		},
		{
			"bufferView":14,
			"componentType":5126,
			"count":24,
			"type":"VEC3"
		},
		{
			"bufferView":15,
			"componentType":5126,
			"count":24,
			"type":"VEC2"
		},
		{
			"bufferView":16,
			"componentType":5126,
			"count":24,
			"max":[
				0.15625,
				0.6875,
				-0.4375
			],
			"min":[
				-0.15625,
				0.4375,
				-0.75
			],
			"type":"VEC3"
		},
		{
			"bufferView":17,
			"componentType":5126,
			"count":24,
			"type":"VEC3"
		},
		{
			"bufferView":18,
			"componentType":5126,
			"count":24,
			"type":"VEC2"
		},
		{
			"bufferView":19,
			"componentType":5126,
			"count":24,
			"max":[
				0.09375,
				0.5634762644767761,
				-0.6875
			],
			"min":[
				-0.09375,
				0.4384762644767761,
				-0.8125
			],
			"type":"VEC3"
		},
		{
			"bufferView":20,
			"componentType":5126,
			"count":24,
			"type":"VEC3"
		},
		{
			"bufferView":21,
			"componentType":5126,
			"count":24,
			"type":"VEC2"
		},
		{
			"bufferView":22,
			"componentType":5126,
			"count":24,
			"max":[
				0.125,
				0.75,
				-0.4375
			],
			"min":[
				0.0625,
				0.6875,
				-0.5625
			],
			"type":"VEC3"
		},
		{
			"bufferView":23,
			"componentType":5126,
			"count":24,
			"type":"VEC3"
		},
		{
			"bufferView":24,
			"componentType":5126,
			"count":24,
			"type":"VEC2"
		},
		{
			"bufferView":25,
			"componentType":5126,
			"count":24,
			"max":[
				-0.0625,
				0.75,
				-0.4375
			],
			"min":[
				-0.125,
				0.6875,
				-0.5625
			],
			"type":"VEC3"
		},
		{
			"bufferView":26,
			"componentType":5126,
			"count":24,
			"type":"VEC3"
		},
		{
			"bufferView":27,
			"componentType":5126,
			"count":24,
			"type":"VEC2"
		},
		{
			"bufferView":28,
			"componentType":5126,
			"count":24,
			"max":[
				0.03125,
				0,
				0.0625
			],
			"min":[
				-0.03125,
				-0.5,
				0
			],
			"type":"VEC3"
		},
		{
			"bufferView":29,
			"componentType":5126,
			"count":24,
			"type":"VEC3"
		},
		{
			"bufferView":30,
			"componentType":5126,
			"count":24,
			"type":"VEC2"
		},
		{
			"bufferView":31,
			"componentType":5126,
			"count":24,
			"max":[
				0.03125,
				0.22499999403953552,
				0.9312499761581421
			],
			"min":[
				-0.03125,
				-0.2750000059604645,
				0.8687499761581421
			],
			"type":"VEC3"
		},
		{
			"bufferView":32,
			"componentType":5126,
			"count":24,
			"type":"VEC3"
		},
		{
			"bufferView":33,
			"componentType":5126,
			"count":24,
			"type":"VEC2"
		},
		{
			"bufferView":34,
			"componentType":5126,
			"count":1,
			"max":[
				0
			],
			"min":[
				0
			],
			"type":"SCALAR"
		},
		{
			"bufferView":35,
			"componentType":5126,
			"count":1,
			"type":"VEC4"
		},
		{
			"bufferView":36,
			"componentType":5126,
			"count":1,
			"type":"VEC4"
		},
		{
			"bufferView":37,
			"componentType":5126,
			"count":1,
			"type":"VEC4"
		},
		{
			"bufferView":38,
			"componentType":5126,
			"count":1,
			"type":"VEC4"
		}
	],
	"bufferViews":[
		{
			"buffer":0,
			"byteLength":288,
			"byteOffset":0,
			"target":34962
		},
		{
			"buffer":0,
			"byteLength":288,
			"byteOffset":288,
			"target":34962
		},
		{
			"buffer":0,
			"byteLength":192,
			"byteOffset":576,
			"target":34962
		},
		{
			"buffer":0,
			"byteLength":72,
			"byteOffset":768,
			"target":34963
		},
		{
			"buffer":0,
			"byteLength":288,
			"byteOffset":840,
			"target":34962
		},
		{
			"buffer":0,
			"byteLength":288,
			"byteOffset":1128,
			"target":34962
		},
		{
			"buffer":0,
			"byteLength":192,
			"byteOffset":1416,
			"target":34962
		},
		{
			"buffer":0,
			"byteLength":288,
			"byteOffset":1608,
			"target":34962
		},
		{
			"buffer":0,
			"byteLength":288,
			"byteOffset":1896,
			"target":34962
		},
		{
			"buffer":0,
			"byteLength":192,
			"byteOffset":2184,
			"target":34962
		},
		{
			"buffer":0,
			"byteLength":288,
			"byteOffset":2376,
			"target":34962
		},
		{
			"buffer":0,
			"byteLength":288,
			"byteOffset":2664,
			"target":34962
		},
		{
			"buffer":0,
			"byteLength":192,
			"byteOffset":2952,
			"target":34962
		},
		{
			"buffer":0,
			"byteLength":288,
			"byteOffset":3144,
			"target":34962
		},
		{
			"buffer":0,
			"byteLength":288,
			"byteOffset":3432,
			"target":34962
		},
		{
			"buffer":0,
			"byteLength":192,
			"byteOffset":3720,
			"target":34962
		},
		{
			"buffer":0,
			"byteLength":288,
			"byteOffset":3912,
			"target":34962
		},
		{
			"buffer":0,
			"byteLength":288,
			"byteOffset":4200,
			"target":34962
		},
		{
			"buffer":0,
			"byteLength":192,
			"byteOffset":4488,
			"target":34962
		},
		{
			"buffer":0,
			"byteLength":288,
			"byteOffset":4680,
			"target":34962
		},
		{
			"buffer":0,
			"byteLength":288,
			"byteOffset":4968,
			"target":34962
		},
		{
			"buffer":0,
			"byteLength":192,
			"byteOffset":5256,
			"target":34962
		},
		{
			"buffer":0,
			"byteLength":288,
			"byteOffset":5448,
			"target":34962
		},
		{
			"buffer":0,
			"byteLength":288,
			"byteOffset":5736,
			"target":34962
		},
		{
			"buffer":0,
			"byteLength":192,
			"byteOffset":6024,
			"target":34962
		},
		{
			"buffer":0,
			"byteLength":288,
			"byteOffset":6216,
			"target":34962
		},
		{
			"buffer":0,
			"byteLength":288,
			"byteOffset":6504,
			"target":34962
		},
		{
			"buffer":0,
			"byteLength":192,
			"byteOffset":6792,
			"target":34962
		},
		{
			"buffer":0,
			"byteLength":288,
			"byteOffset":6984,
			"target":34962
		},
		{
			"buffer":0,
			"byteLength":288,
			"byteOffset":7272,
			"target":34962
		},
		{
			"buffer":0,
			"byteLength":192,
			"byteOffset":7560,
			"target":34962
		},
		{
			"buffer":0,
			"byteLength":288,
			"byteOffset":7752,
			"target":34962
		},
		{
			"buffer":0,
			"byteLength":288,
			"byteOffset":8040,
			"target":34962
		},
		{
			"buffer":0,
			"byteLength":192,
			"byteOffset":8328,
			"target":34962
		},
		{
			"buffer":0,
			"byteLength":4,
			"byteOffset":8520
		},
		{
			"buffer":0,
			"byteLength":16,
			"byteOffset":8524
		},
		{
			"buffer":0,
			"byteLength":16,
			"byteOffset":8540
		},
		{
			"buffer":0,
			"byteLength":16,
			"byteOffset":8556
		},
		{
			"buffer":0,
			"byteLength":16,
			"byteOffset":8572
		}
	],
	"samplers":[
		{
			"magFilter":9728,
			"minFilter":9984,
			"wrapS":33071,
			"wrapT":33071
		}
	],
	"buffers":[
		{
			"byteLength":8588,
			"uri":"minecraft-cat.bin"
		}
	]
}
